ffmpeg version 5.1.2-essentials_build-www.gyan.dev Copyright (c) 2000-2022 the FFmpeg developers
  built with gcc 12.1.0 (Rev2, Built by MSYS2 project)
  configuration: --enable-gpl --enable-version3 --enable-static --disable-w32threads --disable-autodetect --enable-fontconfig --enable-iconv --enable-gnutls --enable-libxml2 --enable-gmp --enable-lzma --enable-zlib --enable-libsrt --enable-libssh --enable-libzmq --enable-avisynth --enable-sdl2 --enable-libwebp --enable-libx264 --enable-libx265 --enable-libxvid --enable-libaom --enable-libopenjpeg --enable-libvpx --enable-libass --enable-libfreetype --enable-libfribidi --enable-libvidstab --enable-libvmaf --enable-libzimg --enable-amf --enable-cuda-llvm --enable-cuvid --enable-ffnvcodec --enable-nvdec --enable-nvenc --enable-d3d11va --enable-dxva2 --enable-libmfx --enable-libgme --enable-libopenmpt --enable-libopencore-amrwb --enable-libmp3lame --enable-libtheora --enable-libvo-amrwbenc --enable-libgsm --enable-libopencore-amrnb --enable-libopus --enable-libspeex --enable-libvorbis --enable-librubberband
  libavutil      57. 28.100 / 57. 28.100
  libavcodec     59. 37.100 / 59. 37.100
  libavformat    59. 27.100 / 59. 27.100
  libavdevice    59.  7.100 / 59.  7.100
  libavfilter     8. 44.100 /  8. 44.100
  libswscale      6.  7.100 /  6.  7.100
  libswresample   4.  7.100 /  4.  7.100
  libpostproc    56.  6.100 / 56.  6.100
Input #0, rawvideo, from 'pipe:':
  Duration: N/A, start: 0.000000, bitrate: 5971968 kb/s
  Stream #0:0: Video: rawvideo (BGRA / 0x41524742), bgra, 1920x1080, 5971968 kb/s, 90 tbr, 90 tbn
Stream mapping:
  Stream #0:0 -> #0:0 (rawvideo (native) -> h264 (libx264))
[libx264 @ 000001a69a8c1880] using cpu capabilities: MMX2 SSE2Fast SSSE3 SSE4.2 AVX FMA3 BMI2 AVX2
[libx264 @ 000001a69a8c1880] profile High, level 5.1, 4:2:0, 8-bit
[libx264 @ 000001a69a8c1880] 264 - core 164 r3099 e067ab0 - H.264/MPEG-4 AVC codec - Copyleft 2003-2022 - http://www.videolan.org/x264.html - options: cabac=1 ref=3 deblock=1:0:0 analyse=0x3:0x113 me=hex subme=7 psy=1 psy_rd=1.00:0.00 mixed_ref=1 me_range=16 chroma_me=1 trellis=1 8x8dct=1 cqm=0 deadzone=21,11 fast_pskip=1 chroma_qp_offset=-2 threads=30 lookahead_threads=5 sliced_threads=0 nr=0 decimate=1 interlaced=0 bluray_compat=0 constrained_intra=0 bframes=3 b_pyramid=2 b_adapt=1 b_bias=0 direct=1 weightb=1 open_gop=0 weightp=2 keyint=250 keyint_min=25 scenecut=40 intra_refresh=0 rc_lookahead=40 rc=abr mbtree=1 bitrate=16777 ratetol=1.0 qcomp=0.60 qpmin=0 qpmax=69 qpstep=4 ip_ratio=1.40 aq=1:1.00
Output #0, mp4, to '2023_01_18_13_00_41.mp4':
  Metadata:
    encoder         : Lavf59.27.100
  Stream #0:0: Video: h264 (avc1 / 0x31637661), yuv420p(tv, progressive), 1920x1080, q=2-31, 16777 kb/s, 90 fps, 11520 tbn
    Metadata:
      encoder         : Lavc59.37.100 libx264
    Side data:
      cpb: bitrate max/min/avg: 0/0/16777000 buffer size: 0 vbv_delay: N/A
frame=    1 fps=0.0 q=0.0 size=       0kB time=00:00:00.00 bitrate=N/A speed=N/A    frame=   22 fps=0.0 q=0.0 size=       0kB time=00:00:00.00 bitrate=N/A speed=   0x    frame=   42 fps= 41 q=0.0 size=       0kB time=00:00:00.00 bitrate=N/A speed=   0x    frame=   56 fps= 36 q=0.0 size=       0kB time=00:00:00.00 bitrate=N/A speed=   0x    frame=   71 fps= 34 q=0.0 size=       0kB time=00:00:00.00 bitrate=N/A speed=   0x    frame=   86 fps= 33 q=39.0 size=     768kB time=00:00:00.10 bitrate=62863.7kbits/s speed=0.0386x    frame=  105 fps= 34 q=37.0 size=    1536kB time=00:00:00.31 bitrate=40435.0kbits/s speed=0.0998x    frame=  124 fps= 34 q=34.0 size=    1536kB time=00:00:00.52 bitrate=24091.7kbits/s speed=0.144x    frame=  142 fps= 34 q=31.0 size=    1536kB time=00:00:00.72 bitrate=17420.9kbits/s speed=0.174x    frame=  158 fps= 34 q=30.0 size=    1792kB time=00:00:00.90 bitrate=16310.0kbits/s speed=0.193x    frame=  174 fps= 34 q=29.0 size=    1792kB time=00:00:01.07 bitrate=13619.9kbits/s speed=0.209x    frame=  190 fps= 33 q=29.0 size=    2048kB time=00:00:01.25 bitrate=13361.8kbits/s speed=0.221x    frame=  203 fps= 33 q=29.0 size=    2304kB time=00:00:01.40 bitrate=13481.1kbits/s speed=0.225x    frame=  219 fps= 32 q=30.0 size=    3328kB time=00:00:01.57 bitrate=17278.6kbits/s speed=0.234x    frame=  236 fps= 33 q=31.0 size=    4096kB time=00:00:01.76 bitrate=18992.4kbits/s speed=0.244x    frame=  253 fps= 33 q=32.0 size=    4608kB time=00:00:01.95 bitrate=19302.7kbits/s speed=0.252x    frame=  272 fps= 33 q=32.0 size=    5120kB time=00:00:02.16 bitrate=19357.7kbits/s speed=0.262x    frame=  290 fps= 33 q=32.0 size=    5376kB time=00:00:02.36 bitrate=18608.0kbits/s speed=0.269x    frame=  307 fps= 33 q=32.0 size=    5888kB time=00:00:02.55 bitrate=18873.9kbits/s speed=0.274x    frame=  324 fps= 33 q=32.0 size=    6144kB time=00:00:02.74 bitrate=18339.0kbits/s speed=0.28x    frame=  343 fps= 33 q=32.0 size=    6656kB time=00:00:02.95 bitrate=18448.2kbits/s speed=0.286x    frame=  361 fps= 33 q=32.0 size=    6912kB time=00:00:03.15 bitrate=17943.6kbits/s speed=0.291x    frame=  378 fps= 33 q=32.0 size=    7424kB time=00:00:03.34 bitrate=18184.3kbits/s speed=0.294x    frame=  395 fps= 33 q=32.0 size=    7680kB time=00:00:03.53 bitrate=17805.7kbits/s speed=0.298x    frame=  412 fps= 33 q=32.0 size=    8192kB time=00:00:03.72 bitrate=18028.9kbits/s speed= 0.3x    frame=  429 fps= 33 q=32.0 size=    8448kB time=00:00:03.91 bitrate=17694.4kbits/s speed=0.303x    frame=  445 fps= 33 q=32.0 size=    8960kB time=00:00:04.08 bitrate=17950.9kbits/s speed=0.305x    frame=  462 fps= 33 q=32.0 size=    9472kB time=00:00:04.27 bitrate=18138.7kbits/s speed=0.307x    frame=  479 fps= 33 q=32.0 size=    9728kB time=00:00:04.46 bitrate=17841.2kbits/s speed=0.309x    frame=  496 fps= 33 q=32.0 size=   10240kB time=00:00:04.65 bitrate=18018.2kbits/s speed=0.311x    frame=  513 fps= 33 q=32.0 size=   10496kB time=00:00:04.84 bitrate=17748.6kbits/s speed=0.313x    frame=  530 fps= 33 q=32.0 size=   10752kB time=00:00:05.03 bitrate=17499.2kbits/s speed=0.315x    frame=  546 fps= 33 q=32.0 size=   11264kB time=00:00:05.21 bitrate=17707.1kbits/s speed=0.315x    frame=  563 fps= 33 q=32.0 size=   11520kB time=00:00:05.40 bitrate=17476.1kbits/s speed=0.317x    frame=  581 fps= 33 q=32.0 size=   12032kB time=00:00:05.60 bitrate=17600.9kbits/s speed=0.319x    frame=  598 fps= 33 q=32.0 size=   12288kB time=00:00:05.78 bitrate=17388.9kbits/s speed=0.32x    frame=  614 fps= 33 q=32.0 size=   12800kB time=00:00:05.96 bitrate=17573.7kbits/s speed=0.321x    frame=  630 fps= 33 q=32.0 size=   13056kB time=00:00:06.14 bitrate=17406.6kbits/s speed=0.321x    frame=  646 fps= 33 q=32.0 size=   13312kB time=00:00:06.32 bitrate=17248.8kbits/s speed=0.322x    frame=  662 fps= 33 q=32.0 size=   13824kB time=00:00:06.50 bitrate=17422.3kbits/s speed=0.322x    frame=  678 fps= 33 q=32.0 size=   14080kB time=00:00:06.67 bitrate=17272.5kbits/s speed=0.323x    frame=  695 fps= 33 q=32.0 size=   14336kB time=00:00:06.86 bitrate=17102.8kbits/s speed=0.324x    frame=  713 fps= 33 q=32.0 size=   15104kB time=00:00:07.06 bitrate=17509.1kbits/s speed=0.326x    frame=  731 fps= 33 q=32.0 size=   15360kB time=00:00:07.26 bitrate=17315.8kbits/s speed=0.327x    frame=  749 fps= 33 q=32.0 size=   15872kB time=00:00:07.46 bitrate=17413.7kbits/s speed=0.328x    frame=  766 fps= 33 q=32.0 size=   16128kB time=00:00:07.65 bitrate=17258.0kbits/s speed=0.329x    frame=  783 fps= 33 q=32.0 size=   16640kB time=00:00:07.84 bitrate=17377.1kbits/s speed=0.33x    frame=  801 fps= 33 q=32.0 size=   16896kB time=00:00:08.04 bitrate=17205.8kbits/s speed=0.331x    frame=  819 fps= 33 q=32.0 size=   17408kB time=00:00:08.24 bitrate=17297.1kbits/s speed=0.332x    frame=  837 fps= 33 q=31.0 size=   17664kB time=00:00:08.44 bitrate=17135.8kbits/s speed=0.333x    frame=  855 fps= 33 q=31.0 size=   17920kB time=00:00:08.64 bitrate=16982.0kbits/s speed=0.334x    frame=  871 fps= 33 q=31.0 size=   18432kB time=00:00:08.82 bitrate=17115.2kbits/s speed=0.334x    frame=  887 fps= 33 q=31.0 size=   18688kB time=00:00:09.00 bitrate=17010.1kbits/s speed=0.334x    frame=  903 fps= 33 q=31.0 size=   18944kB time=00:00:09.17 bitrate=16909.1kbits/s speed=0.335x    frame=  918 fps= 33 q=31.0 size=   19456kB time=00:00:09.34 bitrate=17056.4kbits/s speed=0.335x    frame=  933 fps= 33 q=31.0 size=   19712kB time=00:00:09.51 bitrate=16978.0kbits/s speed=0.334x    frame=  950 fps= 33 q=31.0 size=   19968kB time=00:00:09.70 bitrate=16863.6kbits/s speed=0.335x    frame=  967 fps= 33 q=31.0 size=   20736kB time=00:00:09.88 bitrate=17177.7kbits/s speed=0.335x    frame=  984 fps= 33 q=31.0 size=   20992kB time=00:00:10.07 bitrate=17063.8kbits/s speed=0.336x    frame= 1000 fps= 33 q=31.0 size=   21248kB time=00:00:10.25 bitrate=16972.5kbits/s speed=0.336x    frame= 1013 fps= 33 q=31.0 size=   21248kB time=00:00:10.40 bitrate=16736.8kbits/s speed=0.335x    frame= 1029 fps= 33 q=31.0 size=   21504kB time=00:00:10.57 bitrate=16653.8kbits/s speed=0.335x    frame= 1046 fps= 33 q=31.0 size=   22016kB time=00:00:10.76 bitrate=16751.1kbits/s speed=0.336x    frame= 1064 fps= 33 q=31.0 size=   22272kB time=00:00:10.96 bitrate=16636.9kbits/s speed=0.336x    frame= 1082 fps= 33 q=31.0 size=   22784kB time=00:00:11.16 bitrate=16714.5kbits/s speed=0.337x    frame= 1100 fps= 33 q=31.0 size=   23296kB time=00:00:11.36 bitrate=16789.4kbits/s speed=0.338x    frame= 1118 fps= 33 q=31.0 size=   23552kB time=00:00:11.56 bitrate=16680.4kbits/s speed=0.339x    frame= 1135 fps= 33 q=31.0 size=   24064kB time=00:00:11.75 bitrate=16769.2kbits/s speed=0.339x    frame= 1153 fps= 33 q=31.0 size=   24320kB time=00:00:11.95 bitrate=16664.1kbits/s speed=0.34x    frame= 1168 fps= 33 q=31.0 size=   24576kB time=00:00:12.12 bitrate=16608.0kbits/s speed=0.34x    frame= 1185 fps= 33 q=31.0 size=   25088kB time=00:00:12.31 bitrate=16693.8kbits/s speed=0.34x    frame= 1200 fps= 33 q=31.0 size=   25344kB time=00:00:12.47 bitrate=16638.9kbits/s speed=0.34x    frame= 1218 fps= 33 q=31.0 size=   26112kB time=00:00:12.67 bitrate=16872.7kbits/s speed=0.341x    frame= 1235 fps= 33 q=31.0 size=   26368kB time=00:00:12.86 bitrate=16788.0kbits/s speed=0.341x    frame= 1254 fps= 33 q=31.0 size=   26880kB time=00:00:13.07 bitrate=16837.7kbits/s speed=0.342x    frame= 1272 fps= 33 q=31.0 size=   27136kB time=00:00:13.27 bitrate=16742.0kbits/s speed=0.343x    frame= 1289 fps= 33 q=31.0 size=   27648kB time=00:00:13.46 bitrate=16818.7kbits/s speed=0.343x    frame= 1307 fps= 33 q=31.0 size=   27904kB time=00:00:13.66 bitrate=16726.0kbits/s speed=0.344x    frame= 1324 fps= 33 q=31.0 size=   28416kB time=00:00:13.85 bitrate=16800.7kbits/s speed=0.344x    frame= 1342 fps= 33 q=31.0 size=   28672kB time=00:00:14.05 bitrate=16710.8kbits/s speed=0.344x    frame= 1360 fps= 33 q=31.0 size=   29184kB time=00:00:14.25 bitrate=16770.6kbits/s speed=0.345x    frame= 1376 fps= 33 q=31.0 size=   29440kB time=00:00:14.43 bitrate=16709.3kbits/s speed=0.345x    frame= 1392 fps= 33 q=31.0 size=   29952kB time=00:00:14.61 bitrate=16793.1kbits/s speed=0.345x    frame= 1409 fps= 33 q=31.0 size=   30208kB time=00:00:14.80 bitrate=16720.5kbits/s speed=0.345x    frame= 1426 fps= 33 q=31.0 size=   30720kB time=00:00:14.98 bitrate=16789.6kbits/s speed=0.345x    frame= 1444 fps= 33 q=31.0 size=   31232kB time=00:00:15.18 bitrate=16844.6kbits/s speed=0.346x    frame= 1461 fps= 33 q=31.0 size=   31744kB time=00:00:15.37 bitrate=16910.5kbits/s speed=0.346x    frame= 1479 fps= 33 q=31.0 size=   32256kB time=00:00:15.57 bitrate=16962.6kbits/s speed=0.347x    frame= 1496 fps= 33 q=31.0 size=   32512kB time=00:00:15.76 bitrate=16892.4kbits/s speed=0.347x    frame= 1514 fps= 33 q=31.0 size=   33024kB time=00:00:15.96 bitrate=16943.5kbits/s speed=0.347x    frame= 1532 fps= 33 q=31.0 size=   33280kB time=00:00:16.16 bitrate=16863.6kbits/s speed=0.348x    frame= 1550 fps= 33 q=31.0 size=   33792kB time=00:00:16.36 bitrate=16913.8kbits/s speed=0.348x    frame= 1567 fps= 33 q=31.0 size=   34304kB time=00:00:16.55 bitrate=16974.2kbits/s speed=0.348x    frame= 1584 fps= 33 q=31.0 size=   34560kB time=00:00:16.74 bitrate=16908.0kbits/s speed=0.349x    frame= 1600 fps= 33 q=31.0 size=   35072kB time=00:00:16.92 bitrate=16978.2kbits/s speed=0.349x    frame= 1617 fps= 33 q=31.0 size=   35328kB time=00:00:17.11 bitrate=16913.3kbits/s speed=0.349x    frame= 1635 fps= 33 q=31.0 size=   35840kB time=00:00:17.31 bitrate=16960.2kbits/s speed=0.349x    frame= 1653 fps= 33 q=31.0 size=   36352kB time=00:00:17.51 bitrate=17006.0kbits/s speed=0.35x    frame= 1671 fps= 33 q=31.0 size=   36608kB time=00:00:17.71 bitrate=16932.4kbits/s speed=0.35x    frame= 1689 fps= 33 q=32.0 size=   37120kB time=00:00:17.91 bitrate=16977.5kbits/s speed=0.35x    frame= 1707 fps= 33 q=32.0 size=   37632kB time=00:00:18.11 bitrate=17021.6kbits/s speed=0.351x    frame= 1724 fps= 33 q=32.0 size=   38144kB time=00:00:18.30 bitrate=17075.1kbits/s speed=0.351x    frame= 1741 fps= 33 q=32.0 size=   38400kB time=00:00:18.48 bitrate=17014.1kbits/s speed=0.351x    frame= 1757 fps= 33 q=32.0 size=   38912kB time=00:00:18.66 bitrate=17076.8kbits/s speed=0.351x    frame= 1773 fps= 33 q=32.0 size=   39168kB time=00:00:18.84 bitrate=17026.9kbits/s speed=0.351x    frame= 1788 fps= 33 q=32.0 size=   39680kB time=00:00:19.01 bitrate=17098.3kbits/s speed=0.351x    frame= 1805 fps= 33 q=32.0 size=   39936kB time=00:00:19.20 bitrate=17039.3kbits/s speed=0.351x    frame= 1822 fps= 33 q=31.0 size=   40192kB time=00:00:19.38 bitrate=16981.5kbits/s speed=0.351x    frame= 1839 fps= 33 q=31.0 size=   40448kB time=00:00:19.57 bitrate=16924.7kbits/s speed=0.351x    frame= 1856 fps= 33 q=31.0 size=   40704kB time=00:00:19.76 bitrate=16869.1kbits/s speed=0.351x    frame= 1873 fps= 33 q=31.0 size=   40960kB time=00:00:19.95 bitrate=16814.5kbits/s speed=0.351x    frame= 1892 fps= 33 q=31.0 size=   41216kB time=00:00:20.16 bitrate=16742.5kbits/s speed=0.352x    frame= 1912 fps= 33 q=31.0 size=   41472kB time=00:00:20.38 bitrate=16662.9kbits/s speed=0.353x    frame= 1931 fps= 33 q=28.0 size=   41728kB time=00:00:20.60 bitrate=16593.9kbits/s speed=0.353x    frame= 1949 fps= 33 q=31.0 size=   41984kB time=00:00:20.80 bitrate=16535.2kbits/s speed=0.353x    frame= 1967 fps= 33 q=31.0 size=   42240kB time=00:00:21.00 bitrate=16477.6kbits/s speed=0.354x    frame= 1984 fps= 33 q=31.0 size=   43008kB time=00:00:21.18 bitrate=16627.6kbits/s speed=0.354x    frame= 2001 fps= 33 q=31.0 size=   43520kB time=00:00:21.37 bitrate=16676.9kbits/s speed=0.354x    frame= 2018 fps= 33 q=31.0 size=   43776kB time=00:00:21.56 bitrate=16628.1kbits/s speed=0.354x    frame= 2035 fps= 33 q=31.0 size=   44288kB time=00:00:21.75 bitrate=16676.5kbits/s speed=0.354x    frame= 2051 fps= 33 q=31.0 size=   44800kB time=00:00:21.93 bitrate=16732.5kbits/s speed=0.354x    frame= 2068 fps= 33 q=31.0 size=   45056kB time=00:00:22.12 bitrate=16684.5kbits/s speed=0.354x    frame= 2085 fps= 33 q=31.0 size=   45568kB time=00:00:22.31 bitrate=16731.2kbits/s speed=0.354x    frame= 2103 fps= 33 q=31.0 size=   46080kB time=00:00:22.51 bitrate=16768.9kbits/s speed=0.354x    frame= 2122 fps= 33 q=31.0 size=   46592kB time=00:00:22.72 bitrate=16797.7kbits/s speed=0.355x    frame= 2139 fps= 33 q=31.0 size=   46848kB time=00:00:22.91 bitrate=16750.7kbits/s speed=0.355x    frame= 2158 fps= 33 q=31.0 size=   47360kB time=00:00:23.12 bitrate=16779.2kbits/s speed=0.355x    frame= 2177 fps= 33 q=31.0 size=   47872kB time=00:00:23.33 bitrate=16807.1kbits/s speed=0.356x    frame= 2194 fps= 33 q=31.0 size=   48128kB time=00:00:23.52 bitrate=16761.3kbits/s speed=0.356x    frame= 2211 fps= 33 q=31.0 size=   48896kB time=00:00:23.71 bitrate=16893.1kbits/s speed=0.356x    frame= 2229 fps= 33 q=31.0 size=   49152kB time=00:00:23.91 bitrate=16839.5kbits/s speed=0.356x    frame= 2246 fps= 33 q=31.0 size=   49664kB time=00:00:24.10 bitrate=16881.6kbits/s speed=0.356x    frame= 2264 fps= 33 q=31.0 size=   50176kB time=00:00:24.30 bitrate=16915.3kbits/s speed=0.357x    frame= 2280 fps= 33 q=31.0 size=   50432kB time=00:00:24.47 bitrate=16878.1kbits/s speed=0.356x    frame= 2297 fps= 33 q=31.0 size=   50944kB time=00:00:24.66 bitrate=16918.9kbits/s speed=0.357x    frame= 2314 fps= 33 q=31.0 size=   51200kB time=00:00:24.85 bitrate=16874.7kbits/s speed=0.357x    frame= 2332 fps= 33 q=31.0 size=   51712kB time=00:00:25.05 bitrate=16907.4kbits/s speed=0.357x    frame= 2349 fps= 33 q=31.0 size=   52224kB time=00:00:25.24 bitrate=16947.0kbits/s speed=0.357x    frame= 2366 fps= 33 q=31.0 size=   52480kB time=00:00:25.43 bitrate=16903.6kbits/s speed=0.357x    frame= 2383 fps= 33 q=31.0 size=   52992kB time=00:00:25.62 bitrate=16942.7kbits/s speed=0.357x    frame= 2402 fps= 33 q=31.0 size=   53504kB time=00:00:25.83 bitrate=16966.6kbits/s speed=0.357x    frame= 2420 fps= 33 q=31.0 size=   54016kB time=00:00:26.03 bitrate=16997.4kbits/s speed=0.358x    frame= 2439 fps= 33 q=32.0 size=   54528kB time=00:00:26.24 bitrate=17020.5kbits/s speed=0.358x    frame= 2456 fps= 33 q=32.0 size=   54784kB time=00:00:26.43 bitrate=16978.2kbits/s speed=0.358x    frame= 2473 fps= 33 q=32.0 size=   55552kB time=00:00:26.62 bitrate=17094.0kbits/s speed=0.358x    frame= 2493 fps= 33 q=32.0 size=   55808kB time=00:00:26.84 bitrate=17030.6kbits/s speed=0.359x    frame= 2512 fps= 33 q=32.0 size=   56320kB time=00:00:27.05 bitrate=17052.8kbits/s speed=0.359x    frame= 2532 fps= 33 q=32.0 size=   56832kB time=00:00:27.27 bitrate=17067.6kbits/s speed=0.359x    frame= 2551 fps= 33 q=32.0 size=   57344kB time=00:00:27.48 bitrate=17089.1kbits/s speed=0.36x    frame= 2569 fps= 33 q=32.0 size=   57856kB time=00:00:27.68 bitrate=17117.2kbits/s speed=0.36x    frame= 2586 fps= 33 q=32.0 size=   58112kB time=00:00:27.87 bitrate=17076.4kbits/s speed=0.36x    frame= 2602 fps= 33 q=32.0 size=   58368kB time=00:00:28.05 bitrate=17043.0kbits/s speed=0.36x    frame= 2619 fps= 33 q=32.0 size=   58880kB time=00:00:28.24 bitrate=17077.5kbits/s speed=0.36x    frame= 2636 fps= 33 q=32.0 size=   59136kB time=00:00:28.43 bitrate=17037.8kbits/s speed=0.36x    frame= 2653 fps= 33 q=32.0 size=   59648kB time=00:00:28.62 bitrate=17071.9kbits/s speed=0.36x    frame= 2670 fps= 33 q=32.0 size=   60160kB time=00:00:28.81 bitrate=17105.5kbits/s speed=0.36x    frame= 2687 fps= 33 q=32.0 size=   60672kB time=00:00:29.00 bitrate=17138.8kbits/s speed=0.36x    frame= 2704 fps= 33 q=32.0 size=   61184kB time=00:00:29.18 bitrate=17171.5kbits/s speed=0.36x    frame= 2722 fps= 33 q=32.0 size=   61952kB time=00:00:29.38 bitrate=17268.8kbits/s speed=0.36x    frame= 2739 fps= 33 q=32.0 size=   62464kB time=00:00:29.57 bitrate=17300.3kbits/s speed=0.36x    frame= 2756 fps= 33 q=32.0 size=   62720kB time=00:00:29.76 bitrate=17261.0kbits/s speed=0.36x    frame= 2773 fps= 33 q=32.0 size=   63232kB time=00:00:29.95 bitrate=17292.1kbits/s speed=0.361x    frame= 2789 fps= 33 q=32.0 size=   63488kB time=00:00:30.13 bitrate=17259.7kbits/s speed=0.36x    frame= 2805 fps= 33 q=32.0 size=   64000kB time=00:00:30.31 bitrate=17296.9kbits/s speed=0.36x    frame= 2821 fps= 33 q=32.0 size=   64256kB time=00:00:30.48 bitrate=17264.8kbits/s speed=0.36x    frame= 2837 fps= 33 q=32.0 size=   64512kB time=00:00:30.66 bitrate=17233.1kbits/s speed=0.36x    frame= 2854 fps= 33 q=32.0 size=   64768kB time=00:00:30.85 bitrate=17195.6kbits/s speed=0.36x    frame= 2871 fps= 33 q=32.0 size=   65280kB time=00:00:31.04 bitrate=17226.0kbits/s speed=0.36x    frame= 2888 fps= 33 q=32.0 size=   65536kB time=00:00:31.23 bitrate=17189.0kbits/s speed=0.36x    frame= 2905 fps= 33 q=32.0 size=   65792kB time=00:00:31.42 bitrate=17152.4kbits/s speed=0.36x    frame= 2923 fps= 33 q=32.0 size=   66304kB time=00:00:31.62 bitrate=17176.6kbits/s speed=0.36x    frame= 2941 fps= 33 q=32.0 size=   66560kB time=00:00:31.82 bitrate=17134.5kbits/s speed=0.36x    frame= 2958 fps= 33 q=32.0 size=   66816kB time=00:00:32.01 bitrate=17098.9kbits/s speed=0.361x    frame= 2976 fps= 33 q=32.0 size=   67328kB time=00:00:32.21 bitrate=17123.0kbits/s speed=0.361x    frame= 2993 fps= 33 q=32.0 size=   67584kB time=00:00:32.40 bitrate=17087.9kbits/s speed=0.361x    frame= 3010 fps= 33 q=32.0 size=   67840kB time=00:00:32.58 bitrate=17053.2kbits/s speed=0.361x    frame= 3028 fps= 33 q=32.0 size=   68096kB time=00:00:32.78 bitrate=17013.1kbits/s speed=0.361x    frame= 3045 fps= 33 q=32.0 size=   68608kB time=00:00:32.97 bitrate=17042.9kbits/s speed=0.361x    frame= 3063 fps= 33 q=32.0 size=   68864kB time=00:00:33.17 bitrate=17003.3kbits/s speed=0.361x    frame= 3080 fps= 33 q=32.0 size=   69120kB time=00:00:33.36 bitrate=16969.9kbits/s speed=0.361x    frame= 3096 fps= 33 q=32.0 size=   69888kB time=00:00:33.54 bitrate=17067.5kbits/s speed=0.361x    frame= 3112 fps= 33 q=32.0 size=   70144kB time=00:00:33.72 bitrate=17039.8kbits/s speed=0.361x    frame= 3129 fps= 33 q=32.0 size=   70656kB time=00:00:33.91 bitrate=17068.5kbits/s speed=0.361x    frame= 3147 fps= 33 q=32.0 size=   71424kB time=00:00:34.11 bitrate=17152.9kbits/s speed=0.361x    frame= 3163 fps= 33 q=32.0 size=   71680kB time=00:00:34.28 bitrate=17125.1kbits/s speed=0.361x    frame= 3179 fps= 33 q=32.0 size=   72192kB time=00:00:34.46 bitrate=17158.5kbits/s speed=0.361x    frame= 3195 fps= 33 q=32.0 size=   72704kB time=00:00:34.64 bitrate=17191.5kbits/s speed=0.361x    frame= 3211 fps= 33 q=32.0 size=   72960kB time=00:00:34.82 bitrate=17164.0kbits/s speed=0.361x    frame= 3229 fps= 33 q=32.0 size=   73472kB time=00:00:35.02 bitrate=17185.7kbits/s speed=0.361x    frame= 3248 fps= 33 q=32.0 size=   73984kB time=00:00:35.23 bitrate=17201.8kbits/s speed=0.361x    frame= 3265 fps= 33 q=32.0 size=   74496kB time=00:00:35.42 bitrate=17228.5kbits/s speed=0.361x    frame= 3282 fps= 33 q=32.0 size=   75008kB time=00:00:35.61 bitrate=17254.9kbits/s speed=0.361x    frame= 3298 fps= 33 q=32.0 size=   75264kB time=00:00:35.78 bitrate=17227.7kbits/s speed=0.361x    frame= 3314 fps= 33 q=32.0 size=   75776kB time=00:00:35.96 bitrate=17259.2kbits/s speed=0.361x    frame= 3331 fps= 33 q=32.0 size=   76032kB time=00:00:36.15 bitrate=17227.0kbits/s speed=0.361x    frame= 3348 fps= 33 q=32.0 size=   76800kB time=00:00:36.34 bitrate=17310.6kbits/s speed=0.361x    frame= 3366 fps= 33 q=32.0 size=   77312kB time=00:00:36.54 bitrate=17330.6kbits/s speed=0.361x    frame= 3382 fps= 33 q=32.0 size=   77568kB time=00:00:36.72 bitrate=17303.9kbits/s speed=0.361x    frame= 3400 fps= 33 q=32.0 size=   77824kB time=00:00:36.92 bitrate=17266.9kbits/s speed=0.361x    frame= 3418 fps= 33 q=32.0 size=   78336kB time=00:00:37.12 bitrate=17286.9kbits/s speed=0.362x    frame= 3434 fps= 33 q=32.0 size=   78592kB time=00:00:37.30 bitrate=17260.7kbits/s speed=0.362x    frame= 3453 fps= 33 q=32.0 size=   79104kB time=00:00:37.51 bitrate=17275.4kbits/s speed=0.362x    frame= 3470 fps= 33 q=32.0 size=   79616kB time=00:00:37.70 bitrate=17300.1kbits/s speed=0.362x    frame= 3488 fps= 33 q=32.0 size=   79872kB time=00:00:37.90 bitrate=17264.1kbits/s speed=0.362x    frame= 3506 fps= 33 q=32.0 size=   80384kB time=00:00:38.10 bitrate=17283.6kbits/s speed=0.362x    frame= 3525 fps= 33 q=32.0 size=   80640kB time=00:00:38.31 bitrate=17243.1kbits/s speed=0.362x    frame= 3542 fps= 33 q=32.0 size=   81152kB time=00:00:38.50 bitrate=17267.4kbits/s speed=0.362x    frame= 3560 fps= 33 q=32.0 size=   81408kB time=00:00:38.70 bitrate=17232.4kbits/s speed=0.363x    frame= 3582 fps= 33 q=32.0 size=   81920kB time=00:00:38.94 bitrate=17231.9kbits/s speed=0.363x    frame= 3603 fps= 33 q=32.0 size=   82688kB time=00:00:39.17 bitrate=17289.9kbits/s speed=0.363x    frame= 3624 fps= 33 q=32.0 size=   82944kB time=00:00:39.41 bitrate=17240.7kbits/s speed=0.364x    frame= 3644 fps= 33 q=32.0 size=   83456kB time=00:00:39.63 bitrate=17249.9kbits/s speed=0.364x    frame= 3664 fps= 34 q=32.0 size=   83968kB time=00:00:39.85 bitrate=17258.9kbits/s speed=0.365x    frame= 3684 fps= 34 q=32.0 size=   84224kB time=00:00:40.07 bitrate=17215.6kbits/s speed=0.365x    frame= 3702 fps= 34 q=32.0 size=   84736kB time=00:00:40.27 bitrate=17234.2kbits/s speed=0.365x    frame= 3721 fps= 34 q=32.0 size=   84992kB time=00:00:40.48 bitrate=17196.2kbits/s speed=0.365x    frame= 3741 fps= 34 q=32.0 size=   85504kB time=00:00:40.71 bitrate=17205.3kbits/s speed=0.366x    frame= 3760 fps= 34 q=32.0 size=   85760kB time=00:00:40.92 bitrate=17167.8kbits/s speed=0.366x    frame= 3780 fps= 34 q=32.0 size=   86272kB time=00:00:41.14 bitrate=17177.0kbits/s speed=0.366x    frame= 3798 fps= 34 q=32.0 size=   86784kB time=00:00:41.34 bitrate=17195.4kbits/s speed=0.366x    frame= 3816 fps= 34 q=32.0 size=   87040kB time=00:00:41.54 bitrate=17163.1kbits/s speed=0.366x    frame= 3834 fps= 34 q=32.0 size=   87296kB time=00:00:41.74 bitrate=17131.1kbits/s speed=0.366x    frame= 3854 fps= 34 q=32.0 size=   88064kB time=00:00:41.96 bitrate=17190.3kbits/s speed=0.367x    frame= 3875 fps= 34 q=32.0 size=   88320kB time=00:00:42.20 bitrate=17144.9kbits/s speed=0.367x    frame= 3896 fps= 34 q=32.0 size=   88832kB time=00:00:42.43 bitrate=17149.5kbits/s speed=0.367x    frame= 3915 fps= 34 q=32.0 size=   88832kB time=00:00:42.64 bitrate=17064.6kbits/s speed=0.368x    frame= 3937 fps= 34 q=32.0 size=   89600kB time=00:00:42.88 bitrate=17114.0kbits/s speed=0.368x    frame= 3955 fps= 34 q=32.0 size=   89856kB time=00:00:43.08 bitrate=17083.3kbits/s speed=0.368x    frame= 3973 fps= 34 q=32.0 size=   90368kB time=00:00:43.28 bitrate=17101.2kbits/s speed=0.368x    frame= 3993 fps= 34 q=32.0 size=   90880kB time=00:00:43.51 bitrate=17110.3kbits/s speed=0.368x    frame= 4015 fps= 34 q=32.0 size=   91136kB time=00:00:43.75 bitrate=17062.6kbits/s speed=0.369x    frame= 4036 fps= 34 q=32.0 size=   91648kB time=00:00:43.98 bitrate=17067.5kbits/s speed=0.369x    frame= 4056 fps= 34 q=32.0 size=   92160kB time=00:00:44.21 bitrate=17076.6kbits/s speed=0.37x    frame= 4074 fps= 34 q=32.0 size=   92416kB time=00:00:44.41 bitrate=17046.9kbits/s speed=0.37x    frame= 4093 fps= 34 q=32.0 size=   92928kB time=00:00:44.62 bitrate=17060.2kbits/s speed=0.37x    frame= 4115 fps= 34 q=32.0 size=   93440kB time=00:00:44.86 bitrate=17060.8kbits/s speed=0.37x    frame= 4135 fps= 34 q=32.0 size=   93952kB time=00:00:45.08 bitrate=17069.7kbits/s speed=0.37x    frame= 4154 fps= 34 q=32.0 size=   94208kB time=00:00:45.30 bitrate=17036.4kbits/s speed=0.371x    frame= 4174 fps= 34 q=32.0 size=   94720kB time=00:00:45.52 bitrate=17045.4kbits/s speed=0.371x    frame= 4193 fps= 34 q=32.0 size=   95232kB time=00:00:45.73 bitrate=17058.4kbits/s speed=0.371x    frame= 4212 fps= 34 q=32.0 size=   95744kB time=00:00:45.94 bitrate=17071.4kbits/s speed=0.371x    frame= 4231 fps= 34 q=32.0 size=   96256kB time=00:00:46.15 bitrate=17084.1kbits/s speed=0.371x    frame= 4250 fps= 34 q=32.0 size=   96512kB time=00:00:46.36 bitrate=17051.6kbits/s speed=0.372x    frame= 4268 fps= 34 q=32.0 size=   97024kB time=00:00:46.56 bitrate=17068.4kbits/s speed=0.372x    frame= 4286 fps= 34 q=32.0 size=   97280kB time=00:00:46.76 bitrate=17040.3kbits/s speed=0.372x    frame= 4304 fps= 34 q=32.0 size=   97792kB time=00:00:46.96 bitrate=17057.0kbits/s speed=0.372x    frame= 4322 fps= 34 q=32.0 size=   98048kB time=00:00:47.16 bitrate=17029.1kbits/s speed=0.372x    frame= 4339 fps= 34 q=32.0 size=   98560kB time=00:00:47.35 bitrate=17049.8kbits/s speed=0.372x    frame= 4356 fps= 34 q=32.0 size=   98816kB time=00:00:47.54 bitrate=17026.2kbits/s speed=0.372x    frame= 4377 fps= 34 q=32.0 size=   99328kB time=00:00:47.77 bitrate=17030.8kbits/s speed=0.372x    frame= 4398 fps= 34 q=32.0 size=   99840kB time=00:00:48.01 bitrate=17035.4kbits/s speed=0.372x    frame= 4419 fps= 34 q=32.0 size=  100352kB time=00:00:48.24 bitrate=17039.9kbits/s speed=0.373x    frame= 4440 fps= 34 q=32.0 size=  100864kB time=00:00:48.47 bitrate=17044.4kbits/s speed=0.373x    frame= 4462 fps= 34 q=32.0 size=  101376kB time=00:00:48.72 bitrate=17045.0kbits/s speed=0.374x    frame= 4481 fps= 34 q=32.0 size=  101888kB time=00:00:48.93 bitrate=17057.2kbits/s speed=0.374x    frame= 4497 fps= 34 q=32.0 size=  102144kB time=00:00:49.11 bitrate=17038.2kbits/s speed=0.374x    frame= 4511 fps= 34 q=32.0 size=  102400kB time=00:00:49.26 bitrate=17026.9kbits/s speed=0.373x    frame= 4526 fps= 34 q=32.0 size=  102912kB time=00:00:49.43 bitrate=17054.4kbits/s speed=0.373x    frame= 4545 fps= 34 q=32.0 size=  103168kB time=00:00:49.64 bitrate=17024.1kbits/s speed=0.373x    frame= 4563 fps= 34 q=32.0 size=  103680kB time=00:00:49.84 bitrate=17039.9kbits/s speed=0.373x    frame= 4576 fps= 34 q=32.0 size=  103936kB time=00:00:49.98 bitrate=17032.6kbits/s speed=0.373x    frame= 4589 fps= 34 q=32.0 size=  104192kB time=00:00:50.13 bitrate=17025.4kbits/s speed=0.373x    frame= 4608 fps= 34 q=32.0 size=  104448kB time=00:00:50.34 bitrate=16995.7kbits/s speed=0.373x    frame= 4625 fps= 34 q=32.0 size=  104960kB time=00:00:50.53 bitrate=17015.1kbits/s speed=0.373x    frame= 4643 fps= 34 q=32.0 size=  105472kB time=00:00:50.73 bitrate=17030.7kbits/s speed=0.373x    frame= 4663 fps= 34 q=32.0 size=  105728kB time=00:00:50.95 bitrate=16997.6kbits/s speed=0.373x    frame= 4682 fps= 34 q=32.0 size=  106496kB time=00:00:51.16 bitrate=17050.4kbits/s speed=0.373x    frame= 4703 fps= 34 q=32.0 size=  107008kB time=00:00:51.40 bitrate=17054.6kbits/s speed=0.373x    frame= 4724 fps= 34 q=32.0 size=  107264kB time=00:00:51.63 bitrate=17018.2kbits/s speed=0.374x    frame= 4746 fps= 34 q=32.0 size=  107520kB time=00:00:51.87 bitrate=16978.4kbits/s speed=0.374x    frame= 4765 fps= 34 q=32.0 size=  107776kB time=00:00:52.08 bitrate=16949.9kbits/s speed=0.374x    frame= 4784 fps= 34 q=32.0 size=  108032kB time=00:00:52.30 bitrate=16921.5kbits/s speed=0.374x    frame= 4802 fps= 34 q=32.0 size=  108288kB time=00:00:52.50 bitrate=16897.0kbits/s speed=0.374x    frame= 4821 fps= 34 q=32.0 size=  108544kB time=00:00:52.71 bitrate=16869.1kbits/s speed=0.374x    frame= 4841 fps= 34 q=32.0 size=  108800kB time=00:00:52.93 bitrate=16837.9kbits/s speed=0.375x    frame= 4864 fps= 34 q=32.0 size=  109056kB time=00:00:53.18 bitrate=16796.5kbits/s speed=0.375x    frame= 4886 fps= 34 q=31.0 size=  109312kB time=00:00:53.43 bitrate=16758.9kbits/s speed=0.375x    frame= 4906 fps= 34 q=31.0 size=  109568kB time=00:00:53.65 bitrate=16728.6kbits/s speed=0.376x    frame= 4926 fps= 34 q=31.0 size=  109824kB time=00:00:53.87 bitrate=16698.5kbits/s speed=0.376x    frame= 4945 fps= 34 q=31.0 size=  110336kB time=00:00:54.08 bitrate=16710.9kbits/s speed=0.376x    frame= 4963 fps= 34 q=31.0 size=  110592kB time=00:00:54.28 bitrate=16687.9kbits/s speed=0.376x    frame= 4982 fps= 34 q=31.0 size=  110848kB time=00:00:54.50 bitrate=16661.8kbits/s speed=0.376x    frame= 4999 fps= 34 q=31.0 size=  111104kB time=00:00:54.68 bitrate=16642.6kbits/s speed=0.376x    frame= 5017 fps= 34 q=31.0 size=  111872kB time=00:00:54.88 bitrate=16696.5kbits/s speed=0.376x    frame= 5035 fps= 34 q=31.0 size=  112128kB time=00:00:55.08 bitrate=16674.0kbits/s speed=0.376x    frame= 5052 fps= 34 q=31.0 size=  112640kB time=00:00:55.27 bitrate=16692.9kbits/s speed=0.376x    frame= 5070 fps= 34 q=31.0 size=  113152kB time=00:00:55.47 bitrate=16708.3kbits/s speed=0.376x    frame= 5090 fps= 34 q=31.0 size=  113664kB time=00:00:55.70 bitrate=16717.0kbits/s speed=0.377x    frame= 5108 fps= 34 q=31.0 size=  114176kB time=00:00:55.90 bitrate=16732.2kbits/s speed=0.377x    frame= 5127 fps= 34 q=31.0 size=  114688kB time=00:00:56.11 bitrate=16744.0kbits/s speed=0.377x    frame= 5147 fps= 34 q=31.0 size=  115200kB time=00:00:56.33 bitrate=16752.4kbits/s speed=0.377x    frame= 5166 fps= 34 q=32.0 size=  115712kB time=00:00:56.54 bitrate=16764.0kbits/s speed=0.377x    frame= 5187 fps= 34 q=32.0 size=  116480kB time=00:00:56.77 bitrate=16805.9kbits/s speed=0.377x    frame= 5210 fps= 35 q=32.0 size=  116992kB time=00:00:57.03 bitrate=16804.2kbits/s speed=0.378x    frame= 5232 fps= 35 q=32.0 size=  117504kB time=00:00:57.27 bitrate=16805.7kbits/s speed=0.378x    frame= 5254 fps= 35 q=32.0 size=  118016kB time=00:00:57.52 bitrate=16807.2kbits/s speed=0.378x    frame= 5272 fps= 35 q=32.0 size=  118528kB time=00:00:57.72 bitrate=16821.6kbits/s speed=0.378x    frame= 5289 fps= 35 q=32.0 size=  119040kB time=00:00:57.91 bitrate=16839.2kbits/s speed=0.378x    frame= 5305 fps= 35 q=32.0 size=  119296kB time=00:00:58.08 bitrate=16823.7kbits/s speed=0.378x    frame= 5321 fps= 35 q=32.0 size=  119808kB time=00:00:58.26 bitrate=16844.4kbits/s speed=0.378x    frame= 5336 fps= 35 q=32.0 size=  120064kB time=00:00:58.43 bitrate=16832.2kbits/s speed=0.378x    frame= 5352 fps= 34 q=32.0 size=  120576kB time=00:00:58.61 bitrate=16852.7kbits/s speed=0.378x    frame= 5370 fps= 34 q=32.0 size=  121088kB time=00:00:58.81 bitrate=16866.7kbits/s speed=0.378x    frame= 5390 fps= 35 q=32.0 size=  121600kB time=00:00:59.03 bitrate=16874.3kbits/s speed=0.378x    frame= 5411 fps= 35 q=32.0 size=  122112kB time=00:00:59.26 bitrate=16878.6kbits/s speed=0.378x    frame= 5433 fps= 35 q=32.0 size=  122880kB time=00:00:59.51 bitrate=16915.0kbits/s speed=0.379x    frame= 5455 fps= 35 q=32.0 size=  123392kB time=00:00:59.75 bitrate=16916.0kbits/s speed=0.379x    frame= 5476 fps= 35 q=32.0 size=  123904kB time=00:00:59.98 bitrate=16920.1kbits/s speed=0.379x    frame= 5496 fps= 35 q=32.0 size=  124160kB time=00:01:00.21 bitrate=16892.5kbits/s speed=0.379x    frame= 5516 fps= 35 q=32.0 size=  124672kB time=00:01:00.43 bitrate=16899.8kbits/s speed=0.379x    frame= 5538 fps= 35 q=32.0 size=  125184kB time=00:01:00.67 bitrate=16900.9kbits/s speed=0.38x    frame= 5558 fps= 35 q=32.0 size=  125696kB time=00:01:00.90 bitrate=16908.1kbits/s speed=0.38x    frame= 5579 fps= 35 q=32.0 size=  126208kB time=00:01:01.13 bitrate=16912.1kbits/s speed=0.38x    frame= 5599 fps= 35 q=32.0 size=  126720kB time=00:01:01.35 bitrate=16919.2kbits/s speed=0.38x    frame= 5620 fps= 35 q=32.0 size=  127232kB time=00:01:01.58 bitrate=16923.2kbits/s speed=0.381x    frame= 5640 fps= 35 q=32.0 size=  127488kB time=00:01:01.81 bitrate=16896.3kbits/s speed=0.381x    frame= 5661 fps= 35 q=32.0 size=  128000kB time=00:01:02.04 bitrate=16900.4kbits/s speed=0.381x    frame= 5680 fps= 35 q=32.0 size=  128768kB time=00:01:02.25 bitrate=16944.1kbits/s speed=0.381x    frame= 5699 fps= 35 q=32.0 size=  129280kB time=00:01:02.46 bitrate=16954.0kbits/s speed=0.381x    frame= 5720 fps= 35 q=32.0 size=  129792kB time=00:01:02.70 bitrate=16957.8kbits/s speed=0.382x    frame= 5741 fps= 35 q=32.0 size=  130048kB time=00:01:02.93 bitrate=16928.3kbits/s speed=0.382x    frame= 5763 fps= 35 q=32.0 size=  130560kB time=00:01:03.17 bitrate=16929.2kbits/s speed=0.382x    frame= 5782 fps= 35 q=32.0 size=  131072kB time=00:01:03.38 bitrate=16938.9kbits/s speed=0.382x    frame= 5800 fps= 35 q=32.0 size=  131328kB time=00:01:03.58 bitrate=16918.6kbits/s speed=0.382x    frame= 5821 fps= 35 q=32.0 size=  131584kB time=00:01:03.82 bitrate=16889.7kbits/s speed=0.382x    frame= 5840 fps= 35 q=32.0 size=  131840kB time=00:01:04.03 bitrate=16866.7kbits/s speed=0.382x    frame= 5858 fps= 35 q=32.0 size=  132096kB time=00:01:04.23 bitrate=16846.9kbits/s speed=0.382x    frame= 5874 fps= 35 q=32.0 size=  132352kB time=00:01:04.41 bitrate=16832.9kbits/s speed=0.382x    frame= 5893 fps= 35 q=32.0 size=  132608kB time=00:01:04.62 bitrate=16810.4kbits/s speed=0.382x    frame= 5914 fps= 35 q=32.0 size=  132864kB time=00:01:04.85 bitrate=16782.2kbits/s speed=0.383x    frame= 5934 fps= 35 q=32.0 size=  133632kB time=00:01:05.07 bitrate=16821.6kbits/s speed=0.383x    frame= 5956 fps= 35 q=32.0 size=  134144kB time=00:01:05.32 bitrate=16822.9kbits/s speed=0.383x    frame= 5978 fps= 35 q=32.0 size=  134656kB time=00:01:05.56 bitrate=16824.1kbits/s speed=0.383x    frame= 5998 fps= 35 q=32.0 size=  135168kB time=00:01:05.78 bitrate=16831.0kbits/s speed=0.383x    frame= 6016 fps= 35 q=32.0 size=  135680kB time=00:01:05.98 bitrate=16843.6kbits/s speed=0.384x    frame= 6034 fps= 35 q=32.0 size=  136192kB time=00:01:06.18 bitrate=16856.1kbits/s speed=0.384x    frame= 6052 fps= 35 q=32.0 size=  136704kB time=00:01:06.38 bitrate=16868.5kbits/s speed=0.384x    frame= 6068 fps= 35 q=32.0 size=  136960kB time=00:01:06.56 bitrate=16854.9kbits/s speed=0.383x    frame= 6083 fps= 35 q=32.0 size=  137216kB time=00:01:06.73 bitrate=16844.2kbits/s speed=0.383x    frame= 6102 fps= 35 q=32.0 size=  137728kB time=00:01:06.94 bitrate=16853.8kbits/s speed=0.383x    frame= 6123 fps= 35 q=32.0 size=  138240kB time=00:01:07.17 bitrate=16857.7kbits/s speed=0.384x    frame= 6144 fps= 35 q=32.0 size=  138752kB time=00:01:07.41 bitrate=16861.5kbits/s speed=0.384x    frame= 6165 fps= 35 q=32.0 size=  139264kB time=00:01:07.64 bitrate=16865.4kbits/s speed=0.384x    frame= 6186 fps= 35 q=32.0 size=  140032kB time=00:01:07.87 bitrate=16900.1kbits/s speed=0.384x    frame= 6203 fps= 35 q=32.0 size=  140544kB time=00:01:08.06 bitrate=16914.8kbits/s speed=0.384x    frame= 6222 fps= 35 q=32.0 size=  140800kB time=00:01:08.27 bitrate=16893.2kbits/s speed=0.384x    frame= 6236 fps= 35 q=32.0 size=  141312kB time=00:01:08.43 bitrate=16916.1kbits/s speed=0.384x    frame= 6251 fps= 35 q=32.0 size=  141568kB time=00:01:08.60 bitrate=16905.6kbits/s speed=0.384x    frame= 6266 fps= 35 q=32.0 size=  141824kB time=00:01:08.76 bitrate=16895.1kbits/s speed=0.384x    frame= 6287 fps= 35 q=32.0 size=  142336kB time=00:01:09.00 bitrate=16898.8kbits/s speed=0.384x    frame= 6307 fps= 35 q=32.0 size=  142848kB time=00:01:09.22 bitrate=16905.1kbits/s speed=0.384x    frame= 6325 fps= 35 q=32.0 size=  143360kB time=00:01:09.42 bitrate=16916.8kbits/s speed=0.384x    frame= 6343 fps= 35 q=32.0 size=  143616kB time=00:01:09.62 bitrate=16898.4kbits/s speed=0.384x    frame= 6362 fps= 35 q=32.0 size=  144128kB time=00:01:09.83 bitrate=16907.3kbits/s speed=0.384x    frame= 6383 fps= 35 q=32.0 size=  144640kB time=00:01:10.06 bitrate=16910.9kbits/s speed=0.384x    frame= 6405 fps= 35 q=32.0 size=  145152kB time=00:01:10.31 bitrate=16911.8kbits/s speed=0.385x    frame= 6427 fps= 35 q=32.0 size=  145920kB time=00:01:10.55 bitrate=16942.3kbits/s speed=0.385x    frame= 6445 fps= 35 q=32.0 size=  146176kB time=00:01:10.75 bitrate=16924.1kbits/s speed=0.385x    frame= 6466 fps= 35 q=32.0 size=  146688kB time=00:01:10.98 bitrate=16927.5kbits/s speed=0.385x    frame= 6488 fps= 35 q=32.0 size=  147200kB time=00:01:11.23 bitrate=16928.3kbits/s speed=0.385x    frame= 6509 fps= 35 q=32.0 size=  147712kB time=00:01:11.46 bitrate=16931.7kbits/s speed=0.385x    frame= 6531 fps= 35 q=32.0 size=  148224kB time=00:01:11.71 bitrate=16932.5kbits/s speed=0.386x    frame= 6552 fps= 35 q=32.0 size=  148736kB time=00:01:11.94 bitrate=16935.9kbits/s speed=0.386x    frame= 6570 fps= 35 q=32.0 size=  148992kB time=00:01:12.14 bitrate=16918.0kbits/s speed=0.386x    frame= 6589 fps= 35 q=32.0 size=  149504kB time=00:01:12.35 bitrate=16926.6kbits/s speed=0.386x    frame= 6610 fps= 35 q=32.0 size=  149760kB time=00:01:12.58 bitrate=16901.1kbits/s speed=0.386x    frame= 6631 fps= 35 q=32.0 size=  150272kB time=00:01:12.82 bitrate=16904.6kbits/s speed=0.386x    frame= 6651 fps= 35 q=32.0 size=  150784kB time=00:01:13.04 bitrate=16910.5kbits/s speed=0.386x    frame= 6671 fps= 35 q=32.0 size=  151552kB time=00:01:13.26 bitrate=16945.1kbits/s speed=0.387x    frame= 6690 fps= 35 q=32.0 size=  151808kB time=00:01:13.47 bitrate=16925.0kbits/s speed=0.387x    frame= 6708 fps= 35 q=32.0 size=  152064kB time=00:01:13.67 bitrate=16907.5kbits/s speed=0.387x    frame= 6727 fps= 35 q=32.0 size=  152576kB time=00:01:13.88 bitrate=16916.0kbits/s speed=0.387x    frame= 6745 fps= 35 q=32.0 size=  152832kB time=00:01:14.08 bitrate=16898.6kbits/s speed=0.387x    frame= 6766 fps= 35 q=32.0 size=  153088kB time=00:01:14.32 bitrate=16873.8kbits/s speed=0.387x    frame= 6785 fps= 35 q=32.0 size=  153344kB time=00:01:14.53 bitrate=16854.1kbits/s speed=0.387x    frame= 6808 fps= 35 q=32.0 size=  153856kB time=00:01:14.78 bitrate=16852.6kbits/s speed=0.387x    frame= 6830 fps= 35 q=32.0 size=  154112kB time=00:01:15.03 bitrate=16825.6kbits/s speed=0.387x    frame= 6838 fps= 35 q=-1.0 Lsize=  155385kB time=00:01:15.94 bitrate=16761.0kbits/s speed=0.391x    
video:155302kB audio:0kB subtitle:0kB other streams:0kB global headers:0kB muxing overhead: 0.053397%
[libx264 @ 000001a69a8c1880] frame I:29    Avg QP:20.54  size:270987
[libx264 @ 000001a69a8c1880] frame P:1725  Avg QP:23.54  size: 59996
[libx264 @ 000001a69a8c1880] frame B:5084  Avg QP:27.37  size:  9378
[libx264 @ 000001a69a8c1880] consecutive B-frames:  0.8%  0.1%  0.1% 99.0%
[libx264 @ 000001a69a8c1880] mb I  I16..4: 29.2% 39.1% 31.7%
[libx264 @ 000001a69a8c1880] mb P  I16..4:  2.5%  5.0%  0.3%  P16..4: 25.6% 16.6% 14.2%  0.0%  0.0%    skip:35.8%
[libx264 @ 000001a69a8c1880] mb B  I16..4:  0.6%  0.8%  0.0%  B16..8: 27.7%  3.5%  1.7%  direct: 5.0%  skip:60.7%  L0:51.6% L1:45.1% BI: 3.3%
[libx264 @ 000001a69a8c1880] final ratefactor: 21.69
[libx264 @ 000001a69a8c1880] 8x8 transform intra:58.6% inter:43.5%
[libx264 @ 000001a69a8c1880] coded y,uvDC,uvAC intra: 13.0% 18.2% 5.2% inter: 10.4% 3.9% 0.4%
[libx264 @ 000001a69a8c1880] i16 v,h,dc,p: 74% 17%  7%  2%
[libx264 @ 000001a69a8c1880] i8 v,h,dc,ddl,ddr,vr,hd,vl,hu: 41% 16% 37%  1%  1%  1%  1%  1%  1%
[libx264 @ 000001a69a8c1880] i4 v,h,dc,ddl,ddr,vr,hd,vl,hu: 14% 17% 20%  6%  9%  7% 12%  5% 10%
[libx264 @ 000001a69a8c1880] i8c dc,h,v,p: 76% 19%  4%  1%
[libx264 @ 000001a69a8c1880] Weighted P-Frames: Y:9.6% UV:8.0%
[libx264 @ 000001a69a8c1880] ref P L0: 41.6% 13.2% 23.3% 21.1%  0.9%
[libx264 @ 000001a69a8c1880] ref B L0: 70.3% 16.9% 12.8%
[libx264 @ 000001a69a8c1880] ref B L1: 89.4% 10.6%
[libx264 @ 000001a69a8c1880] kb/s:16744.70
